<?xml version="1.0" standalone="no"?>
 <!DOCTYPE svg PUBLIC "-//W3C//DTD SVG 1.1//EN" 
 "http://www.w3.org/Graphics/SVG/1.1/DTD/svg11.dtd"> 
<svg xmlns="http://www.w3.org/2000/svg" version="1.1" 
    width="29.7002cm" height="21.0007cm" viewBox="0 0 116930 82680 ">
<title>SVG Picture created as bin_clock_2-F.Cu.svg date 2017/04/14 00:20:01 </title>
  <desc>Picture generated by PCBNEW </desc>
<g style="fill:#000000; fill-opacity:1;stroke:#000000; stroke-opacity:1;
stroke-linecap:round; stroke-linejoin:round; "
 transform="translate(0 0) scale(1 1)">
</g>
<g style="fill:#000000; fill-opacity:0.0; 
stroke:#000000; stroke-width:-0.000393701; stroke-opacity:1; 
stroke-linecap:round; stroke-linejoin:round;">
</g>
<g style="fill:#000000; fill-opacity:1.0; 
stroke:#000000; stroke-width:0; stroke-opacity:1; 
stroke-linecap:round; stroke-linejoin:round;">
<circle cx="85000" cy="21000" r="275" /> 
</g>
<g style="fill:#000000; fill-opacity:1.0; 
stroke:#000000; stroke-width:39.3701; stroke-opacity:1; 
stroke-linecap:round; stroke-linejoin:round;">
</g>
<g style="fill:#000000; fill-opacity:1.0; 
stroke:#000000; stroke-width:0; stroke-opacity:1; 
stroke-linecap:round; stroke-linejoin:round;">
<circle cx="85000" cy="23000" r="275" /> 
</g>
<g style="fill:#000000; fill-opacity:1.0; 
stroke:#000000; stroke-width:39.3701; stroke-opacity:1; 
stroke-linecap:round; stroke-linejoin:round;">
</g>
<g style="fill:#000000; fill-opacity:1.0; 
stroke:#000000; stroke-width:0; stroke-opacity:1; 
stroke-linecap:round; stroke-linejoin:round;">
<circle cx="82000" cy="21000" r="275" /> 
</g>
<g style="fill:#000000; fill-opacity:1.0; 
stroke:#000000; stroke-width:39.3701; stroke-opacity:1; 
stroke-linecap:round; stroke-linejoin:round;">
</g>
<g style="fill:#000000; fill-opacity:1.0; 
stroke:#000000; stroke-width:0; stroke-opacity:1; 
stroke-linecap:round; stroke-linejoin:round;">
<circle cx="82000" cy="23000" r="275" /> 
</g>
<g style="fill:#000000; fill-opacity:1.0; 
stroke:#000000; stroke-width:39.3701; stroke-opacity:1; 
stroke-linecap:round; stroke-linejoin:round;">
</g>
<g style="fill:#000000; fill-opacity:1.0; 
stroke:#000000; stroke-width:0; stroke-opacity:1; 
stroke-linecap:round; stroke-linejoin:round;">
<polyline style="fill-rule:evenodd;"
points="48151,37598
48348,37598
48348,37835
48151,37835
48151,37598
" /> 
<polyline style="fill-rule:evenodd;"
points="48151,38031
48348,38031
48348,38268
48151,38268
48151,38031
" /> 
<polyline style="fill-rule:evenodd;"
points="46647,47677
46647,47322
47120,47322
47120,47677
46647,47677
" /> 
<polyline style="fill-rule:evenodd;"
points="47513,47677
47513,47322
47986,47322
47986,47677
47513,47677
" /> 
<polyline style="fill-rule:evenodd;"
points="56169,47322
56169,47677
55696,47677
55696,47322
56169,47322
" /> 
<polyline style="fill-rule:evenodd;"
points="55303,47322
55303,47677
54830,47677
54830,47322
55303,47322
" /> 
<polyline style="fill-rule:evenodd;"
points="63419,47322
63419,47677
62946,47677
62946,47322
63419,47322
" /> 
<polyline style="fill-rule:evenodd;"
points="62553,47322
62553,47677
62080,47677
62080,47322
62553,47322
" /> 
<polyline style="fill-rule:evenodd;"
points="46287,36453
46287,36946
45696,36946
45696,36453
46287,36453
" /> 
<polyline style="fill-rule:evenodd;"
points="45303,36453
45303,36946
44712,36946
44712,36453
45303,36453
" /> 
<polyline style="fill-rule:evenodd;"
points="45246,38837
44753,38837
44753,38246
45246,38246
45246,38837
" /> 
<polyline style="fill-rule:evenodd;"
points="45246,37853
44753,37853
44753,37262
45246,37262
45246,37853
" /> 
<polyline style="fill-rule:evenodd;"
points="46601,40498
46798,40498
46798,40735
46601,40735
46601,40498
" /> 
<polyline style="fill-rule:evenodd;"
points="46601,40931
46798,40931
46798,41168
46601,41168
46601,40931
" /> 
<polyline style="fill-rule:evenodd;"
points="53898,38718
53701,38718
53701,38481
53898,38481
53898,38718
" /> 
<polyline style="fill-rule:evenodd;"
points="53898,38285
53701,38285
53701,38048
53898,38048
53898,38285
" /> 
<polyline style="fill-rule:evenodd;"
points="59353,55012
59846,55012
59846,55603
59353,55603
59353,55012
" /> 
<polyline style="fill-rule:evenodd;"
points="59353,55996
59846,55996
59846,56587
59353,56587
59353,55996
" /> 
<polyline style="fill-rule:evenodd;"
points="52901,38881
53098,38881
53098,39118
52901,39118
52901,38881
" /> 
<polyline style="fill-rule:evenodd;"
points="52901,39314
53098,39314
53098,39551
52901,39551
52901,39314
" /> 
<polyline style="fill-rule:evenodd;"
points="51984,42951
51984,43148
51748,43148
51748,42951
51984,42951
" /> 
<polyline style="fill-rule:evenodd;"
points="51551,42951
51551,43148
51315,43148
51315,42951
51551,42951
" /> 
<polyline style="fill-rule:evenodd;"
points="47498,41568
47301,41568
47301,41331
47498,41331
47498,41568
" /> 
<polyline style="fill-rule:evenodd;"
points="47498,41135
47301,41135
47301,40898
47498,40898
47498,41135
" /> 
<polyline style="fill-rule:evenodd;"
points="48965,38148
48965,37951
49201,37951
49201,38148
48965,38148
" /> 
<polyline style="fill-rule:evenodd;"
points="49398,38148
49398,37951
49634,37951
49634,38148
49398,38148
" /> 
<polyline style="fill-rule:evenodd;"
points="55563,54363
56036,54363
56036,54836
55563,54836
55563,54363
" /> 
<circle cx="55800" cy="55387.4" r="236.22" /> 
</g>
<g style="fill:#000000; fill-opacity:1.0; 
stroke:#000000; stroke-width:39.3701; stroke-opacity:1; 
stroke-linecap:round; stroke-linejoin:round;">
</g>
<g style="fill:#000000; fill-opacity:1.0; 
stroke:#000000; stroke-width:0; stroke-opacity:1; 
stroke-linecap:round; stroke-linejoin:round;">
<polyline style="fill-rule:evenodd;"
points="27716,49055
27716,49370
27401,49370
27401,49055
27716,49055
" /> 
<polyline style="fill-rule:evenodd;"
points="27086,49055
27086,49370
26771,49370
26771,49055
27086,49055
" /> 
<polyline style="fill-rule:evenodd;"
points="39527,31338
39527,31653
39212,31653
39212,31338
39527,31338
" /> 
<polyline style="fill-rule:evenodd;"
points="38897,31338
38897,31653
38582,31653
38582,31338
38897,31338
" /> 
<polyline style="fill-rule:evenodd;"
points="46962,49407
46962,49092
47277,49092
47277,49407
46962,49407
" /> 
<polyline style="fill-rule:evenodd;"
points="47592,49407
47592,49092
47907,49092
47907,49407
47592,49407
" /> 
<polyline style="fill-rule:evenodd;"
points="55905,49055
55905,49370
55590,49370
55590,49055
55905,49055
" /> 
<polyline style="fill-rule:evenodd;"
points="55275,49055
55275,49370
54960,49370
54960,49055
55275,49055
" /> 
<polyline style="fill-rule:evenodd;"
points="63149,49055
63149,49370
62834,49370
62834,49055
63149,49055
" /> 
<polyline style="fill-rule:evenodd;"
points="62519,49055
62519,49370
62204,49370
62204,49055
62519,49055
" /> 
<polyline style="fill-rule:evenodd;"
points="62519,31653
62519,31338
62834,31338
62834,31653
62519,31653
" /> 
<polyline style="fill-rule:evenodd;"
points="63149,31653
63149,31338
63464,31338
63464,31653
63149,31653
" /> 
<polyline style="fill-rule:evenodd;"
points="71338,49055
71338,49370
71023,49370
71023,49055
71338,49055
" /> 
<polyline style="fill-rule:evenodd;"
points="70708,49055
70708,49370
70393,49370
70393,49055
70708,49055
" /> 
<polyline style="fill-rule:evenodd;"
points="71023,31338
71023,31653
70708,31653
70708,31338
71023,31338
" /> 
<polyline style="fill-rule:evenodd;"
points="70393,31338
70393,31653
70078,31653
70078,31338
70393,31338
" /> 
<polyline style="fill-rule:evenodd;"
points="78897,49055
78897,49370
78582,49370
78582,49055
78897,49055
" /> 
<polyline style="fill-rule:evenodd;"
points="78267,49055
78267,49370
77952,49370
77952,49055
78267,49055
" /> 
<polyline style="fill-rule:evenodd;"
points="79527,31338
79527,31653
79212,31653
79212,31338
79527,31338
" /> 
<polyline style="fill-rule:evenodd;"
points="78897,31338
78897,31653
78582,31653
78582,31338
78897,31338
" /> 
<polyline style="fill-rule:evenodd;"
points="86771,49055
86771,49370
86456,49370
86456,49055
86771,49055
" /> 
<polyline style="fill-rule:evenodd;"
points="86141,49055
86141,49370
85826,49370
85826,49055
86141,49055
" /> 
<polyline style="fill-rule:evenodd;"
points="87401,31338
87401,31653
87086,31653
87086,31338
87401,31338
" /> 
<polyline style="fill-rule:evenodd;"
points="86771,31338
86771,31653
86456,31653
86456,31338
86771,31338
" /> 
<polyline style="fill-rule:evenodd;"
points="48184,36984
47515,36984
47515,36315
48184,36315
48184,36984
" /> 
</g>
<g style="fill:#000000; fill-opacity:1.0; 
stroke:#000000; stroke-width:669.291; stroke-opacity:1; 
stroke-linecap:round; stroke-linejoin:round;">
</g>
<g style="fill:#000000; fill-opacity:0.0; 
stroke:#000000; stroke-width:669.291; stroke-opacity:1; 
stroke-linecap:round; stroke-linejoin:round;">
<path d="M48850 36650
L48850 36650
" />
</g>
<g style="fill:#000000; fill-opacity:0.0; 
stroke:#000000; stroke-width:0; stroke-opacity:1; 
stroke-linecap:round; stroke-linejoin:round;">
</g>
<g style="fill:#000000; fill-opacity:1.0; 
stroke:#000000; stroke-width:0; stroke-opacity:1; 
stroke-linecap:round; stroke-linejoin:round;">
<polyline style="fill-rule:evenodd;"
points="58284,38915
58284,39584
57615,39584
57615,38915
58284,38915
" /> 
</g>
<g style="fill:#000000; fill-opacity:1.0; 
stroke:#000000; stroke-width:669.291; stroke-opacity:1; 
stroke-linecap:round; stroke-linejoin:round;">
</g>
<g style="fill:#000000; fill-opacity:0.0; 
stroke:#000000; stroke-width:669.291; stroke-opacity:1; 
stroke-linecap:round; stroke-linejoin:round;">
<path d="M57950 38250
L57950 38250
" />
<path d="M57950 37250
L57950 37250
" />
</g>
<g style="fill:#000000; fill-opacity:0.0; 
stroke:#000000; stroke-width:0; stroke-opacity:1; 
stroke-linecap:round; stroke-linejoin:round;">
</g>
<g style="fill:#000000; fill-opacity:1.0; 
stroke:#000000; stroke-width:0; stroke-opacity:1; 
stroke-linecap:round; stroke-linejoin:round;">
<polyline style="fill-rule:evenodd;"
points="56334,38915
56334,39584
55665,39584
55665,38915
56334,38915
" /> 
</g>
<g style="fill:#000000; fill-opacity:1.0; 
stroke:#000000; stroke-width:669.291; stroke-opacity:1; 
stroke-linecap:round; stroke-linejoin:round;">
</g>
<g style="fill:#000000; fill-opacity:0.0; 
stroke:#000000; stroke-width:669.291; stroke-opacity:1; 
stroke-linecap:round; stroke-linejoin:round;">
<path d="M56000 38250
L56000 38250
" />
<path d="M56000 37250
L56000 37250
" />
</g>
<g style="fill:#000000; fill-opacity:0.0; 
stroke:#000000; stroke-width:0; stroke-opacity:1; 
stroke-linecap:round; stroke-linejoin:round;">
</g>
<g style="fill:#000000; fill-opacity:1.0; 
stroke:#000000; stroke-width:0; stroke-opacity:1; 
stroke-linecap:round; stroke-linejoin:round;">
<polyline style="fill-rule:evenodd;"
points="27986,47322
27986,47677
27513,47677
27513,47322
27986,47322
" /> 
<polyline style="fill-rule:evenodd;"
points="27120,47322
27120,47677
26647,47677
26647,47322
27120,47322
" /> 
<polyline style="fill-rule:evenodd;"
points="38517,33454
38517,33100
38990,33100
38990,33454
38517,33454
" /> 
<polyline style="fill-rule:evenodd;"
points="39383,33454
39383,33100
39856,33100
39856,33454
39383,33454
" /> 
<polyline style="fill-rule:evenodd;"
points="63669,33322
63669,33677
63196,33677
63196,33322
63669,33322
" /> 
<polyline style="fill-rule:evenodd;"
points="62803,33322
62803,33677
62330,33677
62330,33322
62803,33322
" /> 
<polyline style="fill-rule:evenodd;"
points="71486,47322
71486,47677
71013,47677
71013,47322
71486,47322
" /> 
<polyline style="fill-rule:evenodd;"
points="70620,47322
70620,47677
70147,47677
70147,47322
70620,47322
" /> 
<polyline style="fill-rule:evenodd;"
points="70013,33454
70013,33100
70486,33100
70486,33454
70013,33454
" /> 
<polyline style="fill-rule:evenodd;"
points="70879,33454
70879,33100
71352,33100
71352,33454
70879,33454
" /> 
<polyline style="fill-rule:evenodd;"
points="79236,47322
79236,47677
78763,47677
78763,47322
79236,47322
" /> 
<polyline style="fill-rule:evenodd;"
points="78370,47322
78370,47677
77897,47677
77897,47322
78370,47322
" /> 
<polyline style="fill-rule:evenodd;"
points="78647,33427
78647,33072
79120,33072
79120,33427
78647,33427
" /> 
<polyline style="fill-rule:evenodd;"
points="79513,33427
79513,33072
79986,33072
79986,33427
79513,33427
" /> 
<polyline style="fill-rule:evenodd;"
points="86986,47322
86986,47677
86513,47677
86513,47322
86986,47322
" /> 
<polyline style="fill-rule:evenodd;"
points="86120,47322
86120,47677
85647,47677
85647,47322
86120,47322
" /> 
<polyline style="fill-rule:evenodd;"
points="86413,33377
86413,33022
86886,33022
86886,33377
86413,33377
" /> 
<polyline style="fill-rule:evenodd;"
points="87279,33377
87279,33022
87752,33022
87752,33377
87279,33377
" /> 
<polyline style="fill-rule:evenodd;"
points="56730,54177
56730,53822
57203,53822
57203,54177
56730,54177
" /> 
<polyline style="fill-rule:evenodd;"
points="57596,54177
57596,53822
58069,53822
58069,54177
57596,54177
" /> 
<polyline style="fill-rule:evenodd;"
points="57622,55130
57977,55130
57977,55603
57622,55603
57622,55130
" /> 
<polyline style="fill-rule:evenodd;"
points="57622,55996
57977,55996
57977,56469
57622,56469
57622,55996
" /> 
<polyline style="fill-rule:evenodd;"
points="61054,53304
62432,53304
62432,54092
61054,54092
61054,53304
" /> 
<polyline style="fill-rule:evenodd;"
points="61054,55107
62432,55107
62432,55895
61054,55895
61054,55107
" /> 
<polyline style="fill-rule:evenodd;"
points="63278,53225
66034,53225
66034,55981
63278,55981
63278,53225
" /> 
<circle cx="46998" cy="38600" r="196.85" /> 
</g>
<g style="fill:#000000; fill-opacity:1.0; 
stroke:#000000; stroke-width:39.3701; stroke-opacity:1; 
stroke-linecap:round; stroke-linejoin:round;">
</g>
<g style="fill:#000000; fill-opacity:1.0; 
stroke:#000000; stroke-width:0; stroke-opacity:1; 
stroke-linecap:round; stroke-linejoin:round;">
<circle cx="46250" cy="38600" r="196.85" /> 
</g>
<g style="fill:#000000; fill-opacity:1.0; 
stroke:#000000; stroke-width:39.3701; stroke-opacity:1; 
stroke-linecap:round; stroke-linejoin:round;">
</g>
<g style="fill:#000000; fill-opacity:1.0; 
stroke:#000000; stroke-width:0; stroke-opacity:1; 
stroke-linecap:round; stroke-linejoin:round;">
<polyline style="fill-rule:evenodd;"
points="45420,41610
45420,42003
44337,42003
44337,41610
45420,41610
" /> 
<polyline style="fill-rule:evenodd;"
points="43156,41610
43156,42003
42073,42003
42073,41610
43156,41610
" /> 
<polyline style="fill-rule:evenodd;"
points="43156,40035
43156,40429
42073,40429
42073,40035
43156,40035
" /> 
<polyline style="fill-rule:evenodd;"
points="45420,40035
45420,40429
44337,40429
44337,40035
45420,40035
" /> 
<circle cx="70000" cy="21000" r="275" /> 
</g>
<g style="fill:#000000; fill-opacity:1.0; 
stroke:#000000; stroke-width:39.3701; stroke-opacity:1; 
stroke-linecap:round; stroke-linejoin:round;">
</g>
<g style="fill:#000000; fill-opacity:1.0; 
stroke:#000000; stroke-width:0; stroke-opacity:1; 
stroke-linecap:round; stroke-linejoin:round;">
<circle cx="70000" cy="23000" r="275" /> 
</g>
<g style="fill:#000000; fill-opacity:1.0; 
stroke:#000000; stroke-width:39.3701; stroke-opacity:1; 
stroke-linecap:round; stroke-linejoin:round;">
</g>
<g style="fill:#000000; fill-opacity:1.0; 
stroke:#000000; stroke-width:0; stroke-opacity:1; 
stroke-linecap:round; stroke-linejoin:round;">
<circle cx="67000" cy="21000" r="275" /> 
</g>
<g style="fill:#000000; fill-opacity:1.0; 
stroke:#000000; stroke-width:39.3701; stroke-opacity:1; 
stroke-linecap:round; stroke-linejoin:round;">
</g>
<g style="fill:#000000; fill-opacity:1.0; 
stroke:#000000; stroke-width:0; stroke-opacity:1; 
stroke-linecap:round; stroke-linejoin:round;">
<circle cx="67000" cy="23000" r="275" /> 
</g>
<g style="fill:#000000; fill-opacity:1.0; 
stroke:#000000; stroke-width:39.3701; stroke-opacity:1; 
stroke-linecap:round; stroke-linejoin:round;">
</g>
<g style="fill:#000000; fill-opacity:1.0; 
stroke:#000000; stroke-width:0; stroke-opacity:1; 
stroke-linecap:round; stroke-linejoin:round;">
<circle cx="75000" cy="21000" r="275" /> 
</g>
<g style="fill:#000000; fill-opacity:1.0; 
stroke:#000000; stroke-width:39.3701; stroke-opacity:1; 
stroke-linecap:round; stroke-linejoin:round;">
</g>
<g style="fill:#000000; fill-opacity:1.0; 
stroke:#000000; stroke-width:0; stroke-opacity:1; 
stroke-linecap:round; stroke-linejoin:round;">
<circle cx="75000" cy="23000" r="275" /> 
</g>
<g style="fill:#000000; fill-opacity:1.0; 
stroke:#000000; stroke-width:39.3701; stroke-opacity:1; 
stroke-linecap:round; stroke-linejoin:round;">
</g>
<g style="fill:#000000; fill-opacity:1.0; 
stroke:#000000; stroke-width:0; stroke-opacity:1; 
stroke-linecap:round; stroke-linejoin:round;">
<circle cx="72000" cy="21000" r="275" /> 
</g>
<g style="fill:#000000; fill-opacity:1.0; 
stroke:#000000; stroke-width:39.3701; stroke-opacity:1; 
stroke-linecap:round; stroke-linejoin:round;">
</g>
<g style="fill:#000000; fill-opacity:1.0; 
stroke:#000000; stroke-width:0; stroke-opacity:1; 
stroke-linecap:round; stroke-linejoin:round;">
<circle cx="72000" cy="23000" r="275" /> 
</g>
<g style="fill:#000000; fill-opacity:1.0; 
stroke:#000000; stroke-width:39.3701; stroke-opacity:1; 
stroke-linecap:round; stroke-linejoin:round;">
</g>
<g style="fill:#000000; fill-opacity:1.0; 
stroke:#000000; stroke-width:0; stroke-opacity:1; 
stroke-linecap:round; stroke-linejoin:round;">
<circle cx="80000" cy="21000" r="275" /> 
</g>
<g style="fill:#000000; fill-opacity:1.0; 
stroke:#000000; stroke-width:39.3701; stroke-opacity:1; 
stroke-linecap:round; stroke-linejoin:round;">
</g>
<g style="fill:#000000; fill-opacity:1.0; 
stroke:#000000; stroke-width:0; stroke-opacity:1; 
stroke-linecap:round; stroke-linejoin:round;">
<circle cx="80000" cy="23000" r="275" /> 
</g>
<g style="fill:#000000; fill-opacity:1.0; 
stroke:#000000; stroke-width:39.3701; stroke-opacity:1; 
stroke-linecap:round; stroke-linejoin:round;">
</g>
<g style="fill:#000000; fill-opacity:1.0; 
stroke:#000000; stroke-width:0; stroke-opacity:1; 
stroke-linecap:round; stroke-linejoin:round;">
<circle cx="77000" cy="21000" r="275" /> 
</g>
<g style="fill:#000000; fill-opacity:1.0; 
stroke:#000000; stroke-width:39.3701; stroke-opacity:1; 
stroke-linecap:round; stroke-linejoin:round;">
</g>
<g style="fill:#000000; fill-opacity:1.0; 
stroke:#000000; stroke-width:0; stroke-opacity:1; 
stroke-linecap:round; stroke-linejoin:round;">
<circle cx="77000" cy="23000" r="275" /> 
</g>
<g style="fill:#000000; fill-opacity:1.0; 
stroke:#000000; stroke-width:39.3701; stroke-opacity:1; 
stroke-linecap:round; stroke-linejoin:round;">
</g>
<g style="fill:#000000; fill-opacity:1.0; 
stroke:#000000; stroke-width:0; stroke-opacity:1; 
stroke-linecap:round; stroke-linejoin:round;">
<polyline style="fill-rule:evenodd;"
points="48488,39506
48488,39407
49000,39407
49000,39506
48488,39506
" /> 
<polyline style="fill-rule:evenodd;"
points="48488,39703
48488,39604
49000,39604
49000,39703
48488,39703
" /> 
<polyline style="fill-rule:evenodd;"
points="48488,39899
48488,39801
49000,39801
49000,39899
48488,39899
" /> 
<polyline style="fill-rule:evenodd;"
points="48488,40096
48488,39998
49000,39998
49000,40096
48488,40096
" /> 
<polyline style="fill-rule:evenodd;"
points="48488,40293
48488,40195
49000,40195
49000,40293
48488,40293
" /> 
<polyline style="fill-rule:evenodd;"
points="48488,40490
48488,40392
49000,40392
49000,40490
48488,40490
" /> 
<polyline style="fill-rule:evenodd;"
points="48488,40687
48488,40588
49000,40588
49000,40687
48488,40687
" /> 
<polyline style="fill-rule:evenodd;"
points="48488,40884
48488,40785
49000,40785
49000,40884
48488,40884
" /> 
<polyline style="fill-rule:evenodd;"
points="48488,41081
48488,40982
49000,40982
49000,41081
48488,41081
" /> 
<polyline style="fill-rule:evenodd;"
points="48488,41277
48488,41179
49000,41179
49000,41277
48488,41277
" /> 
<polyline style="fill-rule:evenodd;"
points="48488,41474
48488,41376
49000,41376
49000,41474
48488,41474
" /> 
<polyline style="fill-rule:evenodd;"
points="48488,41671
48488,41573
49000,41573
49000,41671
48488,41671
" /> 
<polyline style="fill-rule:evenodd;"
points="49423,42508
49325,42508
49325,41996
49423,41996
49423,42508
" /> 
<polyline style="fill-rule:evenodd;"
points="49620,42508
49522,42508
49522,41996
49620,41996
49620,42508
" /> 
<polyline style="fill-rule:evenodd;"
points="49817,42508
49719,42508
49719,41996
49817,41996
49817,42508
" /> 
<polyline style="fill-rule:evenodd;"
points="50014,42508
49916,42508
49916,41996
50014,41996
50014,42508
" /> 
<polyline style="fill-rule:evenodd;"
points="50211,42508
50112,42508
50112,41996
50211,41996
50211,42508
" /> 
<polyline style="fill-rule:evenodd;"
points="50408,42508
50309,42508
50309,41996
50408,41996
50408,42508
" /> 
<polyline style="fill-rule:evenodd;"
points="50605,42508
50506,42508
50506,41996
50605,41996
50605,42508
" /> 
<polyline style="fill-rule:evenodd;"
points="50801,42508
50703,42508
50703,41996
50801,41996
50801,42508
" /> 
<polyline style="fill-rule:evenodd;"
points="50998,42508
50900,42508
50900,41996
50998,41996
50998,42508
" /> 
<polyline style="fill-rule:evenodd;"
points="51195,42508
51097,42508
51097,41996
51195,41996
51195,42508
" /> 
<polyline style="fill-rule:evenodd;"
points="51392,42508
51294,42508
51294,41996
51392,41996
51392,42508
" /> 
<polyline style="fill-rule:evenodd;"
points="51589,42508
51490,42508
51490,41996
51589,41996
51589,42508
" /> 
<polyline style="fill-rule:evenodd;"
points="51914,41671
51914,41573
52425,41573
52425,41671
51914,41671
" /> 
<polyline style="fill-rule:evenodd;"
points="51914,41474
51914,41376
52425,41376
52425,41474
51914,41474
" /> 
<polyline style="fill-rule:evenodd;"
points="51914,41277
51914,41179
52425,41179
52425,41277
51914,41277
" /> 
<polyline style="fill-rule:evenodd;"
points="51914,41081
51914,40982
52425,40982
52425,41081
51914,41081
" /> 
<polyline style="fill-rule:evenodd;"
points="51914,40884
51914,40785
52425,40785
52425,40884
51914,40884
" /> 
<polyline style="fill-rule:evenodd;"
points="51914,40687
51914,40588
52425,40588
52425,40687
51914,40687
" /> 
<polyline style="fill-rule:evenodd;"
points="51914,40490
51914,40392
52425,40392
52425,40490
51914,40490
" /> 
<polyline style="fill-rule:evenodd;"
points="51914,40293
51914,40195
52425,40195
52425,40293
51914,40293
" /> 
<polyline style="fill-rule:evenodd;"
points="51914,40096
51914,39998
52425,39998
52425,40096
51914,40096
" /> 
<polyline style="fill-rule:evenodd;"
points="51914,39899
51914,39801
52425,39801
52425,39899
51914,39899
" /> 
<polyline style="fill-rule:evenodd;"
points="51914,39703
51914,39604
52425,39604
52425,39703
51914,39703
" /> 
<polyline style="fill-rule:evenodd;"
points="51914,39506
51914,39407
52425,39407
52425,39506
51914,39506
" /> 
<polyline style="fill-rule:evenodd;"
points="51589,39083
51490,39083
51490,38571
51589,38571
51589,39083
" /> 
<polyline style="fill-rule:evenodd;"
points="51392,39083
51294,39083
51294,38571
51392,38571
51392,39083
" /> 
<polyline style="fill-rule:evenodd;"
points="51195,39083
51097,39083
51097,38571
51195,38571
51195,39083
" /> 
<polyline style="fill-rule:evenodd;"
points="50998,39083
50900,39083
50900,38571
50998,38571
50998,39083
" /> 
<polyline style="fill-rule:evenodd;"
points="50801,39083
50703,39083
50703,38571
50801,38571
50801,39083
" /> 
<polyline style="fill-rule:evenodd;"
points="50605,39083
50506,39083
50506,38571
50605,38571
50605,39083
" /> 
<polyline style="fill-rule:evenodd;"
points="50408,39083
50309,39083
50309,38571
50408,38571
50408,39083
" /> 
<polyline style="fill-rule:evenodd;"
points="50211,39083
50112,39083
50112,38571
50211,38571
50211,39083
" /> 
<polyline style="fill-rule:evenodd;"
points="50014,39083
49916,39083
49916,38571
50014,38571
50014,39083
" /> 
<polyline style="fill-rule:evenodd;"
points="49817,39083
49719,39083
49719,38571
49817,38571
49817,39083
" /> 
<polyline style="fill-rule:evenodd;"
points="49620,39083
49522,39083
49522,38571
49620,38571
49620,39083
" /> 
<polyline style="fill-rule:evenodd;"
points="49423,39083
49325,39083
49325,38571
49423,38571
49423,39083
" /> 
<polyline style="fill-rule:evenodd;"
points="60534,58334
59865,58334
59865,57665
60534,57665
60534,58334
" /> 
</g>
<g style="fill:#000000; fill-opacity:1.0; 
stroke:#000000; stroke-width:669.291; stroke-opacity:1; 
stroke-linecap:round; stroke-linejoin:round;">
</g>
<g style="fill:#000000; fill-opacity:0.0; 
stroke:#000000; stroke-width:669.291; stroke-opacity:1; 
stroke-linecap:round; stroke-linejoin:round;">
<path d="M61200 58000
L61200 58000
" />
</g>
<g style="fill:#000000; fill-opacity:1.0; 
stroke:#000000; stroke-width:0; stroke-opacity:1; 
stroke-linecap:round; stroke-linejoin:round;">
<circle cx="55389.8" cy="50810.2" r="118.11" /> 
</g>
<g style="fill:#000000; fill-opacity:1.0; 
stroke:#000000; stroke-width:39.3701; stroke-opacity:1; 
stroke-linecap:round; stroke-linejoin:round;">
</g>
<g style="fill:#000000; fill-opacity:1.0; 
stroke:#000000; stroke-width:393.701; stroke-opacity:1; 
stroke-linecap:round; stroke-linejoin:round;">
</g>
<g style="fill:#000000; fill-opacity:0.0; 
stroke:#000000; stroke-width:393.701; stroke-opacity:1; 
stroke-linecap:round; stroke-linejoin:round;">
<path d="M82000 54000
L72000 54000
" />
<path d="M82000 62000
L82000 54000
" />
<path d="M72000 62000
L82000 62000
" />
<path d="M72000 54000
L72000 62000
" />
</g>
<g style="fill:#000000; fill-opacity:0.0; 
stroke:#000000; stroke-width:98.4252; stroke-opacity:1; 
stroke-linecap:round; stroke-linejoin:round;">
<path d="M45992 36700
L45992 37594
" />
<path d="M45992 37594
L46998 38600
" />
<path d="M46998 38600
L46998 38878
" />
<path d="M46998 38878
L47968 39848
" />
<path d="M47968 39848
L48387 39848
" />
<path d="M48387 39848
L48742 39848
" />
</g>
<g style="fill:#000000; fill-opacity:0.0; 
stroke:#000000; stroke-width:393.701; stroke-opacity:1; 
stroke-linecap:round; stroke-linejoin:round;">
<path d="M54787 55387
L54400 55000
" />
<path d="M54400 55000
L54400 51800
" />
<path d="M54400 51800
L55389 50810
" />
<path d="M55800 55387
L54787 55387
" />
<path d="M59600 56292
L59600 57400
" />
<path d="M59600 57400
L60200 58000
" />
<path d="M57800 56233
L56645 56233
" />
<path d="M56645 56233
L55800 55387
" />
<path d="M59600 56292
L57859 56292
" />
<path d="M57859 56292
L57800 56233
" />
</g>
<g style="fill:#000000; fill-opacity:0.0; 
stroke:#000000; stroke-width:98.4252; stroke-opacity:1; 
stroke-linecap:round; stroke-linejoin:round;">
<path d="M46700 41050
L45340 41050
" />
<path d="M45340 41050
L44878 41511
" />
<path d="M44878 41511
L44878 41807
" />
<path d="M44878 41807
L44534 41807
" />
<path d="M44534 41807
L42614 41807
" />
<path d="M48150 35950
L48850 36650
" />
<path d="M45413 35950
L48150 35950
" />
<path d="M45007 36700
L45007 36355
" />
<path d="M45007 36355
L45413 35950
" />
<path d="M49194 38794
L48800 38400
" />
<path d="M48550 38150
L48800 38400
" />
<path d="M48800 38400
L48700 38300
" />
<path d="M48250 38150
L48550 38150
" />
<path d="M45000 37557
L45000 36707
" />
<path d="M45000 36707
L45007 36700
" />
<path d="M48850 36650
L48850 37123
" />
<path d="M48850 37123
L49493 37766
" />
<path d="M49493 37766
L49516 37766
" />
<path d="M46700 41050
L48009 41050
" />
<path d="M48009 41050
L48226 40832
" />
<path d="M47400 41016
L48042 41016
" />
<path d="M48042 41016
L48226 40832
" />
<path d="M48226 40832
L48387 40832
" />
<path d="M48387 40832
L48742 40832
" />
<path d="M57950 37250
L57000 37250
" />
<path d="M57000 37250
L56000 38250
" />
<path d="M51433 43050
L51340 42957
" />
<path d="M51340 42957
L51340 42250
" />
<path d="M51950 41950
L52200 42200
" />
<path d="M52200 43350
L52150 43400
" />
<path d="M52200 42200
L52200 43350
" />
<path d="M52150 43400
L51550 43400
" />
<path d="M51550 43400
L51433 43283
" />
<path d="M51433 43283
L51433 43050
" />
<path d="M51950 41950
L51650 41650
" />
<path d="M52000 42000
L51950 41950
" />
<path d="M48742 40832
L49042 40832
" />
<path d="M49042 40832
L49194 40680
" />
<path d="M49194 40680
L49194 38794
" />
<path d="M49516 37766
L49516 38050
" />
<path d="M48700 38300
L48700 37700
" />
<path d="M48700 37700
L48750 37650
" />
<path d="M48750 37650
L49400 37650
" />
<path d="M49400 37650
L49516 37766
" />
<path d="M49568 38550
L49568 38824
" />
<path d="M49568 38470
L49568 38550
" />
<path d="M49568 38550
L49568 38299
" />
<path d="M49568 38299
L49516 38246
" />
<path d="M49516 38246
L49516 38050
" />
<path d="M50159 38824
L50159 39259
" />
<path d="M50159 39259
L50200 39300
" />
<path d="M49568 39300
L49568 38824
" />
<path d="M50200 39300
L51648 39300
" />
<path d="M49568 39300
L50200 39300
" />
<path d="M51648 39300
L52348 38600
" />
<path d="M52348 38600
L53800 38600
" />
<path d="M51650 39800
L51798 39651
" />
<path d="M51798 39651
L52167 39651
" />
<path d="M51650 41650
L51650 39800
" />
<path d="M51812 39651
L52167 39651
" />
<path d="M51340 42250
L51340 42740
" />
<path d="M53800 38600
L54900 38600
" />
<path d="M54900 38600
L55250 38250
" />
<path d="M55250 38250
L54066 39433
" />
<path d="M54066 39433
L53000 39433
" />
<path d="M56000 38250
L55250 38250
" />
<path d="M52167 39651
L52781 39651
" />
<path d="M52781 39651
L53000 39433
" />
<path d="M45000 38542
L46192 38542
" />
<path d="M46192 38542
L46250 38600
" />
<path d="M48742 40045
L47914 40045
" />
<path d="M47914 40045
L47069 39200
" />
<path d="M47069 39200
L46500 39200
" />
<path d="M46250 38950
L46250 38600
" />
<path d="M46500 39200
L46250 38950
" />
<path d="M46700 40616
L44968 40616
" />
<path d="M44968 40616
L44878 40527
" />
<path d="M44878 40527
L44878 40232
" />
<path d="M42614 40232
L43254 40232
" />
<path d="M43254 40232
L44878 40232
" />
<path d="M48742 40635
L46718 40635
" />
<path d="M46718 40635
L46700 40616
" />
<path d="M48250 37716
L48250 37050
" />
<path d="M48250 37050
L47850 36650
" />
<path d="M48154 39454
L47850 39150
" />
<path d="M47850 39150
L47850 36650
" />
<path d="M48742 39454
L48154 39454
" />
<path d="M53800 38166
L53603 38166
" />
<path d="M53603 38166
L53186 37750
" />
<path d="M53186 37750
L52759 37750
" />
<path d="M56000 37250
L55526 37250
" />
<path d="M55526 37250
L55026 37750
" />
<path d="M55026 37750
L52759 37750
" />
<path d="M52759 37750
L52259 38250
" />
<path d="M52259 38250
L51750 38250
" />
<path d="M51750 38250
L51537 38462
" />
<path d="M51537 38462
L51537 38824
" />
</g>
<g style="fill:#000000; fill-opacity:0.0; 
stroke:#000000; stroke-width:393.701; stroke-opacity:1; 
stroke-linecap:round; stroke-linejoin:round;">
<path d="M61743 55501
L61743 57456
" />
<path d="M61743 57456
L61200 58000
" />
<path d="M61743 55501
L59793 55501
" />
<path d="M59793 55501
L59600 55307
" />
<path d="M39400 30000
L86500 30000
" />
<path d="M38064 31166
L39231 30000
" />
<path d="M43400 43000
L42380 43000
" />
<path d="M42380 43000
L38064 38684
" />
<path d="M38064 38684
L38064 31166
" />
<path d="M39231 30000
L39400 30000
" />
<path d="M44600 44200
L43400 43000
" />
<path d="M44600 45000
L44600 44200
" />
<path d="M43800 45800
L44600 45000
" />
<path d="M25800 49200
L25800 47200
" />
<path d="M27200 45800
L43800 45800
" />
<path d="M25800 47200
L27200 45800
" />
<path d="M57996 52400
L57996 50396
" />
<path d="M57996 50396
L57600 50000
" />
<path d="M57996 52400
L64224 52400
" />
<path d="M64224 52400
L64656 52832
" />
<path d="M64656 52832
L64656 54603
" />
<path d="M56966 54000
L56966 53429
" />
<path d="M56966 53429
L57996 52400
" />
<path d="M55800 54600
L56366 54600
" />
<path d="M56366 54600
L56966 54000
" />
<path d="M56000 46923
L57323 46923
" />
<path d="M57323 46923
L57600 47200
" />
<path d="M57600 47200
L57600 48800
" />
<path d="M57600 48800
L57600 50000
" />
<path d="M57600 50000
L86500 50000
" />
<path d="M26600 50000
L57600 50000
" />
</g>
<g style="fill:#000000; fill-opacity:0.0; 
stroke:#000000; stroke-width:98.4252; stroke-opacity:1; 
stroke-linecap:round; stroke-linejoin:round;">
<path d="M55699 46622
L56000 46923
" />
</g>
<g style="fill:#000000; fill-opacity:0.0; 
stroke:#000000; stroke-width:393.701; stroke-opacity:1; 
stroke-linecap:round; stroke-linejoin:round;">
<path d="M86500 50000
L86614 49885
" />
<path d="M86614 49885
L86614 49212
" />
<path d="M67000 23000
L85000 23000
" />
<path d="M67000 26550
L67000 23000
" />
<path d="M70450 30000
L67000 26550
" />
<path d="M86500 30000
L87244 30744
" />
<path d="M26600 50000
L25800 49200
" />
</g>
<g style="fill:#000000; fill-opacity:0.0; 
stroke:#000000; stroke-width:98.4252; stroke-opacity:1; 
stroke-linecap:round; stroke-linejoin:round;">
<path d="M67000 26550
L70700 30250
" />
<path d="M70700 30250
L70750 30300
" />
<path d="M62250 30000
L70450 30000
" />
<path d="M70450 30000
L70700 30250
" />
<path d="M70450 30000
L70750 30300
" />
<path d="M70750 30300
L70866 30416
" />
<path d="M82000 23000
L85000 23000
" />
<path d="M80000 23000
L82000 23000
" />
<path d="M77000 23000
L80000 23000
" />
<path d="M77000 23000
L75000 23000
" />
<path d="M75000 23000
L72000 23000
" />
<path d="M70000 23000
L72000 23000
" />
<path d="M67000 23000
L70000 23000
" />
<path d="M47400 41450
L47859 41450
" />
<path d="M47859 41450
L48280 41029
" />
<path d="M48387 41029
L48742 41029
" />
<path d="M48280 41029
L48387 41029
" />
<path d="M26600 50000
L28090 50000
" />
<path d="M87244 30744
L87244 31496
" />
<path d="M78550 30000
L86500 30000
" />
<path d="M78550 30000
L79370 30820
" />
<path d="M79370 30820
L79370 31496
" />
<path d="M70450 30000
L78550 30000
" />
<path d="M70866 30416
L70866 31496
" />
<path d="M62200 30000
L62250 30000
" />
<path d="M40610 30000
L62200 30000
" />
<path d="M62250 30000
L62677 30427
" />
<path d="M62677 30427
L62677 31496
" />
<path d="M39370 31496
L39370 31240
" />
<path d="M39370 31240
L40610 30000
" />
<path d="M55750 50000
L57550 50000
" />
<path d="M57550 50000
L63000 50000
" />
<path d="M49372 40753
L49194 40931
" />
<path d="M49194 40931
L49194 45544
" />
<path d="M49194 45544
L50272 46622
" />
<path d="M50272 46622
L55699 46622
" />
<path d="M57550 48473
L57550 50000
" />
<path d="M51537 42250
L51537 42720
" />
<path d="M51537 42720
L51866 43050
" />
<path d="M51472 41831
L51472 41750
" />
<path d="M51472 41750
L51472 39726
" />
<path d="M51472 40772
L51472 41750
" />
<path d="M51453 40753
L51472 40772
" />
<path d="M49083 38050
L49083 38329
" />
<path d="M49083 38329
L49372 38618
" />
<path d="M49372 38618
L49372 38824
" />
<path d="M49372 38824
L49372 40753
" />
<path d="M49372 40753
L49096 41029
" />
<path d="M49096 41029
L48742 41029
" />
<path d="M49372 38824
L49372 39353
" />
<path d="M49372 39353
L49495 39477
" />
<path d="M51744 39454
L51812 39454
" />
<path d="M49495 39477
L51722 39477
" />
<path d="M51722 39477
L51744 39454
" />
<path d="M51812 39454
L52167 39454
" />
<path d="M51537 42250
L51537 41895
" />
<path d="M51537 41895
L51472 41831
" />
<path d="M51472 39726
L51744 39454
" />
<path d="M52167 39454
L52564 39454
" />
<path d="M52564 39454
L53000 39019
" />
<path d="M53000 39019
L53000 39000
" />
<path d="M27559 49212
L27559 49468
" />
<path d="M27559 49468
L28090 50000
" />
<path d="M28090 50000
L47614 50000
" />
<path d="M47614 50000
L55750 50000
" />
<path d="M55750 49470
L55750 50000
" />
<path d="M55748 49212
L55748 49468
" />
<path d="M55748 49468
L55750 49470
" />
<path d="M63000 50000
L71250 50000
" />
<path d="M62992 49212
L62992 49992
" />
<path d="M62992 49992
L63000 50000
" />
<path d="M71181 49212
L71181 49468
" />
<path d="M71250 50000
L78750 50000
" />
<path d="M71181 49468
L71250 49537
" />
<path d="M71250 49537
L71250 50000
" />
<path d="M78750 50000
L86500 50000
" />
<path d="M78740 49212
L78740 49990
" />
<path d="M78740 49990
L78750 50000
" />
<path d="M47120 49250
L47120 49505
" />
<path d="M47120 49505
L47614 50000
" />
<path d="M38740 31496
L38740 33263
" />
<path d="M38740 33263
L38753 33277
" />
<path d="M47750 47500
L47750 49250
" />
<path d="M55066 47500
L55066 49161
" />
<path d="M55066 49161
L55118 49212
" />
<path d="M55066 49263
L55118 49212
" />
<path d="M62316 47500
L62316 49167
" />
<path d="M62316 49167
L62362 49212
" />
<path d="M62316 49257
L62362 49212
" />
<path d="M63433 33500
L63433 31622
" />
<path d="M63433 31622
L63307 31496
" />
<path d="M70383 47500
L70383 49045
" />
<path d="M70383 49045
L70551 49212
" />
<path d="M70633 49295
L70551 49212
" />
<path d="M70250 33277
L70250 31509
" />
<path d="M70250 31509
L70236 31496
" />
<path d="M78133 49133
L78110 49157
" />
<path d="M78110 49157
L78110 49212
" />
<path d="M78133 47500
L78133 49133
" />
<path d="M78000 49322
L78110 49212
" />
<path d="M78883 33250
L78883 31639
" />
<path d="M78883 31639
L78740 31496
" />
<path d="M85883 47500
L85883 49112
" />
<path d="M85883 49112
L85984 49212
" />
<path d="M86614 31496
L86614 33164
" />
<path d="M86614 33164
L86650 33200
" />
<path d="M86864 33269
L86883 33250
" />
<path d="M58600 39499
L58600 38900
" />
<path d="M58600 38900
L57950 38250
" />
<path d="M52167 40635
L57463 40635
" />
<path d="M57463 40635
L58600 39499
" />
<path d="M52167 39848
L55834 39848
" />
<path d="M55834 39848
L56000 39683
" />
<path d="M56000 39683
L56000 39250
" />
<path d="M48742 41226
L48334 41226
" />
<path d="M48334 41226
L46050 43510
" />
<path d="M46050 43510
L46050 46550
" />
<path d="M46050 46550
L45100 47500
" />
<path d="M45100 47500
L37000 47500
" />
<path d="M37000 47500
L27750 47500
" />
<path d="M39620 33277
L39620 32579
" />
<path d="M39620 32579
L40000 32200
" />
<path d="M61800 32200
L62000 32400
" />
<path d="M40000 32200
L61800 32200
" />
<path d="M62000 32400
L62000 40000
" />
<path d="M62000 40000
L60771 41228
" />
<path d="M60771 41228
L57771 41228
" />
<path d="M57771 41228
L52170 41228
" />
<path d="M48742 41423
L48387 41423
" />
<path d="M48387 41423
L46883 42927
" />
<path d="M46883 42927
L46883 47224
" />
<path d="M46883 47224
L46883 47500
" />
<path d="M48742 41620
L48742 45342
" />
<path d="M48742 45342
L50199 46800
" />
<path d="M50199 46800
L55174 46800
" />
<path d="M55174 46800
L55874 47500
" />
<path d="M55874 47500
L55933 47500
" />
<path d="M49372 42250
L49372 45372
" />
<path d="M49372 45372
L50445 46445
" />
<path d="M50445 46445
L62069 46445
" />
<path d="M62069 46445
L63124 47500
" />
<path d="M63124 47500
L63183 47500
" />
<path d="M52170 41425
L60925 41425
" />
<path d="M60925 41425
L62566 39784
" />
<path d="M62566 39784
L62566 33775
" />
<path d="M62566 33775
L62566 33500
" />
<path d="M49568 42250
L49568 45218
" />
<path d="M49568 45218
L50618 46268
" />
<path d="M50618 46268
L70768 46268
" />
<path d="M70768 46268
L71250 46750
" />
<path d="M71250 46750
L71250 47500
" />
<path d="M52170 41622
L61200 41622
" />
<path d="M69800 33800
L70869 33800
" />
<path d="M61200 41622
L63000 39822
" />
<path d="M70869 33800
L71116 33553
" />
<path d="M63000 39822
L63000 35000
" />
<path d="M69600 33600
L69800 33800
" />
<path d="M63000 35000
L64000 34000
" />
<path d="M64000 34000
L64000 32800
" />
<path d="M64000 32800
L64800 32000
" />
<path d="M64800 32000
L69400 32000
" />
<path d="M69400 32000
L69600 32200
" />
<path d="M69600 32200
L69600 33600
" />
<path d="M71116 33553
L71116 33277
" />
<path d="M49765 42250
L49765 45165
" />
<path d="M49765 45165
L50691 46091
" />
<path d="M50691 46091
L78391 46091
" />
<path d="M78391 46091
L79000 46700
" />
<path d="M79000 46700
L79000 47500
" />
<path d="M51146 42252
L51146 44396
" />
<path d="M51146 44396
L51250 44500
" />
<path d="M51250 44500
L79000 44500
" />
<path d="M79000 44500
L79750 43750
" />
<path d="M79750 43750
L79750 33250
" />
<path d="M79750 33250
L79750 32974
" />
<path d="M79750 32974
L79061 32285
" />
<path d="M79061 32285
L79061 31271
" />
<path d="M41971 42131
L46064 42131
" />
<path d="M79061 31271
L79000 31210
" />
<path d="M79000 31210
L78480 31210
" />
<path d="M70496 31210
L63047 31210
" />
<path d="M63021 31236
L63021 31755
" />
<path d="M46064 42131
L46969 41227
" />
<path d="M78480 31210
L77909 31781
" />
<path d="M63047 31210
L63021 31236
" />
<path d="M77909 31781
L70547 31781
" />
<path d="M70547 31781
L70521 31755
" />
<path d="M70521 31755
L70521 31236
" />
<path d="M70521 31236
L70496 31210
" />
<path d="M63021 31755
L62996 31781
" />
<path d="M62996 31781
L39051 31781
" />
<path d="M39051 31781
L39025 31755
" />
<path d="M39025 31755
L39025 31236
" />
<path d="M39025 31236
L39000 31210
" />
<path d="M39000 31210
L38480 31210
" />
<path d="M38480 31210
L38389 31301
" />
<path d="M38389 31301
L38389 38550
" />
<path d="M38389 38550
L41971 42131
" />
<path d="M86314 45914
L86750 46350
" />
<path d="M86750 46350
L86750 47500
" />
<path d="M49962 45111
L50765 45914
" />
<path d="M50765 45914
L86314 45914
" />
<path d="M49962 42250
L49962 45111
" />
<path d="M87516 33200
L87516 33683
" />
<path d="M50949 44684
L50949 42252
" />
<path d="M87516 33683
L87200 34000
" />
<path d="M87200 34000
L85800 34000
" />
<path d="M85800 34000
L85800 30600
" />
<path d="M85800 30600
L81000 30600
" />
<path d="M81000 30600
L80400 31200
" />
<path d="M80400 31200
L80400 43350
" />
<path d="M79000 44750
L51015 44750
" />
<path d="M80400 43350
L79000 44750
" />
<path d="M51015 44750
L50949 44684
" />
</g>
<g style="fill:#000000; fill-opacity:0.0; 
stroke:#000000; stroke-width:393.701; stroke-opacity:1; 
stroke-linecap:round; stroke-linejoin:round;">
<path d="M57833 54000
L57833 55333
" />
<path d="M57833 55333
L57800 55366
" />
<path d="M61743 53698
L58134 53698
" />
<path d="M58134 53698
L57833 54000
" />
</g>
<g style="fill:#000000; fill-opacity:0.0; 
stroke:#000000; stroke-width:98.4252; stroke-opacity:1; 
stroke-linecap:round; stroke-linejoin:round;">
<path d="M57950 39250
L57950 39683
" />
<path d="M57950 39683
L57194 40438
" />
<path d="M57194 40438
L52521 40438
" />
<path d="M52521 40438
L52167 40438
" />
<path d="M70000 21000
L71000 20000
" />
<path d="M71000 20000
L85601 20000
" />
<path d="M50162 44899
L50162 42252
" />
<path d="M85601 20000
L86400 20798
" />
<path d="M86400 20798
L86400 25648
" />
<path d="M85513 45736
L51000 45736
" />
<path d="M51000 45736
L50162 44899
" />
<path d="M86400 25648
L90750 29998
" />
<path d="M90750 29998
L90750 40500
" />
<path d="M90750 40500
L85513 45736
" />
<path d="M67000 21000
L70000 21000
" />
<path d="M75000 21000
L75750 20250
" />
<path d="M85600 20250
L86202 20851
" />
<path d="M86202 20851
L86202 25701
" />
<path d="M86202 25701
L90500 29998
" />
<path d="M75750 20250
L85600 20250
" />
<path d="M90500 29998
L90500 40499
" />
<path d="M90500 40499
L85499 45500
" />
<path d="M85499 45500
L51013 45500
" />
<path d="M51013 45500
L50358 44845
" />
<path d="M50358 44845
L50358 42252
" />
<path d="M72000 21000
L75000 21000
" />
<path d="M80000 21000
L80500 20500
" />
<path d="M80500 20500
L85600 20500
" />
<path d="M86025 25774
L90250 29999
" />
<path d="M85600 20500
L86025 20925
" />
<path d="M50536 44772
L50536 42272
" />
<path d="M86025 20925
L86025 25774
" />
<path d="M90250 29999
L90250 40498
" />
<path d="M90250 40498
L85498 45250
" />
<path d="M85498 45250
L51014 45250
" />
<path d="M51014 45250
L50536 44772
" />
<path d="M50536 42272
L50555 42252
" />
<path d="M77000 21000
L80000 21000
" />
<path d="M85000 21000
L85600 21000
" />
<path d="M85800 21200
L85800 25800
" />
<path d="M85600 21000
L85800 21200
" />
<path d="M85250 45000
L51014 45000
" />
<path d="M85800 25800
L89750 29750
" />
<path d="M89750 40500
L85250 45000
" />
<path d="M89750 29750
L89750 40500
" />
<path d="M50752 44737
L50752 42252
" />
<path d="M51014 45000
L50752 44737
" />
<path d="M82000 21000
L85000 21000
" />
</g> 
</svg>
